<svg xmlns="http://www.w3.org/2000/svg" width="81.855" height="90.951" viewBox="0 0 81.855 90.951"><defs><style>.a{fill:#404491;fill-rule:evenodd;}</style></defs><path class="a" d="M106.771,57.057h-6.064a3.032,3.032,0,1,1,0-6.064h6.064a3.032,3.032,0,1,1,0,6.064ZM94.859,36.875a3.032,3.032,0,1,1-4.287-4.287L94.859,28.3a3.032,3.032,0,1,1,4.287,4.287ZM90.392,60.536h0a18.166,18.166,0,0,1-7.873,28.812V82.706a12.113,12.113,0,1,0-12.635-20.66A18.169,18.169,0,1,0,40.076,79.682v7.453A24.241,24.241,0,0,1,59.058,42.891,18.169,18.169,0,0,1,90.392,60.536ZM73.421,41.9a12.084,12.084,0,0,0-8.584,3.563,24.4,24.4,0,0,1,8.534,8.875,17.392,17.392,0,0,1,11.951,2h0A12.106,12.106,0,0,0,73.421,41.9Zm0-12.128a3.032,3.032,0,0,1-3.032-3.032V20.677a3.032,3.032,0,0,1,6.064,0v6.063A3.029,3.029,0,0,1,73.421,29.771Zm-21.437,7.1L47.7,32.588A3.032,3.032,0,0,1,51.985,28.3l4.287,4.287a3.032,3.032,0,0,1-4.287,4.287Zm-2.817,35.34A3.032,3.032,0,0,1,52.2,75.247V99.5a3.032,3.032,0,0,1-6.064,0V75.247A3.034,3.034,0,0,1,49.168,72.215ZM61.3,78.28a3.032,3.032,0,0,1,3.032,3.032v24.253a3.032,3.032,0,0,1-6.064,0V81.312A3.03,3.03,0,0,1,61.3,78.28Zm12.125-6.064a3.032,3.032,0,0,1,3.032,3.032V99.5a3.032,3.032,0,0,1-6.064,0V75.247A3.034,3.034,0,0,1,73.421,72.215Z" transform="translate(-27.948 -17.646)"/></svg>