<svg xmlns="http://www.w3.org/2000/svg" width="91.259" height="96.365" viewBox="0 0 91.259 96.365"><defs><style>.a{fill:#404491;}</style></defs><g transform="translate(0)"><path class="a" d="M35.966,70.911c-.233-.546-.685-2.4-.429-2.261.976.541,2.868,6.157,6.046,8.38,4.794,3.355,7.6,3.034,10.529,1.517,2.185-1.132,4.223-4.421,5.505-5.9.4-.387-.541,1.623-1.253,3a8.925,8.925,0,0,1-4.548,4.561c-3.5,1.4-7.386,1.013-11.538-2.343C38.575,76.489,37.548,74.62,35.966,70.911Z" transform="translate(-3.718 -2.027)"/><path class="a" d="M22.776,47.46c.737-.066.617-.053.384-1.245-.221-1.13-1.244-3.362-.9-.964.19,1.615-.485,1.4-.926,1.779-1.125.854.421,3.831,1.009,3.987.448.118.976,1.993.938,1.234s-.077-2.008-.648-2.273C21.6,49.643,21.608,47.565,22.776,47.46Z" transform="translate(-3.718 -2.027)"/><path class="a" d="M70.608,52.286c-.6.146-.616.957-.808,1.694s.419-.6.874-.619c.7-.035,3.147-2.363,1.717-3.935a1.618,1.618,0,0,1-.4-1.9c.225-1.736-.856-.746-.995.851-.105,1.21-.653,1,.043,1.216C72.142,49.93,71.667,52.163,70.608,52.286Z" transform="translate(-3.718 -2.027)"/><path class="a" d="M44.152,42.064c-1.786,1.208-4.411.365-5.754-.883-.961-.893-2.512-1.8-1.255-.3,2.343,2.8,4.612,3.834,8.043,1.1C45.6,41.653,45.174,41.373,44.152,42.064Z" transform="translate(-3.718 -2.027)"/><path class="a" d="M57.671,43.292a4.48,4.48,0,0,0,5.264,1.018c1.076-.485,2.973-1.39,1.461-.178-3.583,2.871-6.37,1.851-8.179-1.778C55.987,41.891,56.814,42.384,57.671,43.292Z" transform="translate(-3.718 -2.027)"/><path class="a" d="M47.95,37.612c-.209-.49.589.135,1.1.909.924,1.387.3,3.412-1.576,4.978a6.627,6.627,0,0,0,.472-5.887Z" transform="translate(-3.718 -2.027)"/><path class="a" d="M55.192,39.517c.821-1.327-.687-.746-1.183.288-.748,1.56-1.1,4,.783,5.221C54.917,45.107,53.647,42.016,55.192,39.517Z" transform="translate(-3.718 -2.027)"/><path class="a" d="M56,40.495c3.039-1.677,5.354-1.473,6.67-.391.923.758,1.218,1.2,2.159,2.056.563.515.248-.449-.036-.977a5.627,5.627,0,0,0-6.307-2.649c-1.932.484-2.921,2.075-2.485,1.961h0Z" transform="translate(-3.718 -2.027)"/><path class="a" d="M44.148,36.743a5.413,5.413,0,0,0-4.581-.292c-1.062.326-2.987,1.975-1.806,1.4,2.278-1.114,5.214-1.041,6.538.191.961.894.993,1.19,2.015,2.118C46.709,40.935,46.963,38.242,44.148,36.743Z" transform="translate(-3.718 -2.027)"/><path class="a" d="M46.351,40.793a5.873,5.873,0,0,1-2.2-1.758,3.549,3.549,0,0,0-5.121-.2,13.821,13.821,0,0,1,2.6-.1.846.846,0,0,0-.288.6,1.427,1.427,0,0,0,1.432,1.255A1.3,1.3,0,0,0,44.07,40,5.965,5.965,0,0,0,46.351,40.793Z" transform="translate(-3.718 -2.027)"/><path class="a" d="M63.737,42.33A4.029,4.029,0,0,0,58.7,40.5a4.516,4.516,0,0,1-2.411.754,5.6,5.6,0,0,0,2.3.165,1.364,1.364,0,0,0,.476.874,1.665,1.665,0,0,0,2.01-.088.759.759,0,0,0,.111-1,16.941,16.941,0,0,1,2.548,1.125Z" transform="translate(-3.718 -2.027)"/><path class="a" d="M68.9,41.344a1.347,1.347,0,0,0-.436-.523,28.5,28.5,0,0,0-2.991,1.27l.129.346A21.416,21.416,0,0,0,68.9,41.344Z" transform="translate(-3.718 -2.027)"/><path class="a" d="M32.638,36.619a1.347,1.347,0,0,1,.486-.477,28.5,28.5,0,0,1,2.85,1.562l-.163.331a21.416,21.416,0,0,1-3.173-1.416Z" transform="translate(-3.718 -2.027)"/><path class="a" d="M68.784,44.064a1.347,1.347,0,0,1-.478.485,28.5,28.5,0,0,1-2.877-1.511l.157-.334A21.417,21.417,0,0,1,68.784,44.064Z" transform="translate(-3.718 -2.027)"/><path class="a" d="M32.478,39.336a1.347,1.347,0,0,0,.427.53,28.5,28.5,0,0,0,3.013-1.216L35.8,38.3A21.416,21.416,0,0,0,32.478,39.336Z" transform="translate(-3.718 -2.027)"/><path class="a" d="M53.191,65.077c-.691-.852-.755-4.763-1.361-8.055-.4-2.2-1.321-1.466-2-.549-.273.368-.834.185-1.146-.641-.526-1.391-1.709.34-2.276,1.792-1.269,3.249-2.95,5.077-3.9,5.608-.408.229-.68.857-.27.733,1.075-.326,1.52-.319,1.235,1.164a15.014,15.014,0,0,0,.662,5.9c.534,1.841,3.86,3.685,5.447.819C51.159,69,51.685,67.356,53,66.07a5,5,0,0,0,.649.309C55.067,66.968,53.57,65.545,53.191,65.077Zm-4.7,5.993a2.942,2.942,0,0,1-.546.286c-1.084.225-1.716.222-2.972-1.395a4.479,4.479,0,0,1-.542-1.752,12.712,12.712,0,0,1,5.048,1.624,4.855,4.855,0,0,1-.988,1.237Zm.416-10.91a1.421,1.421,0,0,1-.319-.91c-.167.748-.023.8-.2.925a6.256,6.256,0,0,1-2.013-.206,4.982,4.982,0,0,1,.375-.721c1.215-1.791,1.4-1.09,2.163-1.029.639.051,1.5-1.9,1.771-.015.037.265.062.93.108,1.751a11.41,11.41,0,0,1-1.883.206Z" transform="translate(-3.718 -2.027)"/><path class="a" d="M55.424,61.439a21.49,21.49,0,0,0,.512-9.54,1.324,1.324,0,0,1-1.869.163,2.3,2.3,0,0,1-1.364.26c-.513,2.2-4.862,2.06-5.08-.44a2.7,2.7,0,0,1-1.363-.467A1.243,1.243,0,0,1,44.37,50.9a68.533,68.533,0,0,0-2.731,9.658,16.86,16.86,0,0,1,1.471-8.981,23.932,23.932,0,0,1,1.235-2.091,2.228,2.228,0,0,1,1.017-1.39l0-.007v0c.145-.069.241-.066.214.025-.08.281-1,1.167-.938,2.012a.846.846,0,0,0,1.634.353,1,1,0,0,1,1.892.443,2.155,2.155,0,0,0,4.244.367c.2-.705,1.03-1.087,1.438-.449a1.441,1.441,0,0,0,.78.828c.539.143,1.8-.3.534-2.29-.089-.14.11,0,.32.2h0a2.17,2.17,0,0,1,.379.426,1.6,1.6,0,0,1,.3.849,12.879,12.879,0,0,1,.841,2.729C57.649,58.583,54.921,62.938,55.424,61.439Z" transform="translate(-3.718 -2.027)"/><path class="a" d="M78.2,34.482a11.8,11.8,0,0,0,3.723,8.284.616.616,0,0,1-.043.674c-2.22,3.307-6.089,3.128-6.079,3.253-.437,9.456-3.763,10.834-4.765,11.086,0-.014.975,5.365,2.258,7.521a.459.459,0,0,1-.265.68c-1.256.439-4.425.91-5.809.321-.393,1.141-1.021,2.932-1.377,3.795.735.2,17.613,5.065,25.369,7.453,2.536.781-1.809.716-4.614-.128-3.734-1.124-20.157-5.359-20.5-5.453,8.172,9.671,8.682,10.859,8.063,11.764-.211.31-4.872,4.162-5.062,5.361.912.629,6.321,5.717,6.751,6.077,1.465,1.228,2.478,3.091.77,1.908-.4-.275-8.552-6.33-8.681-7.883-.157-1.9,4.769-6.214,4.972-6.415-.564-1.145-8.291-9.955-8.291-9.955a33.077,33.077,0,0,1-2.69,4.653,26.874,26.874,0,0,1,4.226,17.645c-.5,3.315-1.028-1.381-1-2.653.119-6.406-1.076-9.394-3.258-12.536.851,3.648-3.227,14.981-5.453,15.219a1.963,1.963,0,0,1-.2.017c-.668,0-4.619-6.506-5.265-7.561a10.714,10.714,0,0,1-.884,1.3c-1.093,1.279-1.477,1.334-.374,3.065,1.3,2.048,3.081,4.309,1.785,5.366-1.824,1.487-6.724,1.236-8.721.231s-1.521-1.332-.176-3.478c1.679-2.679,1.731-3.614.55-4.63a9.7,9.7,0,0,1-1.4-1.865c-4.383,5.279-4.477,7.77-5.766,8.035-.794.163-.771.017-1.086-.412a33.908,33.908,0,0,1-4.016-13.042c-1.014,1.849-1.532,4.6-1.215,10.4.1,1.871-.17,6.15-.776,3.342a26.358,26.358,0,0,1,2.665-18.018,42.235,42.235,0,0,1-4.833-7.521C26.37,71,21.343,77.992,20.1,80.7c6.323,5.413,6.062,6.05,5.786,6.723a13.824,13.824,0,0,1-1.763,2.3c-1.292,1.563-6.647,6.9-6.694,6.544-.142-1.068.965-2.749,5.151-7.817.443-.537,1.217-1.437,1.514-1.815-.71-.877-2.68-2.61-5.09-4.85C17,79.918,24.45,71.017,24.942,70.322,17.981,71.648,12.472,73,9.688,73.491s-10.347.878-2.527-.817c8.167-1.77,10.451-2.329,18.252-4.533.1-.027-.636-2.736-1.047-4.269a12.446,12.446,0,0,1-5.544-1.844c-.214-.135-.592-.288-.2-.784a12.433,12.433,0,0,0,2.418-4.609c-4.517-.112-4.111-14.02-4.072-14.481-1.511-.931-3.3-2.389-3.32-3.262a.562.562,0,0,1,.187-.388c4.733-4.858,1.443-21.013,15.854-31.608C39.149-.058,55.759.551,65.955,8c4.4,3.216,20.847,16.052,28.889,17.023C95.457,25.095,94.588,37.088,78.2,34.482ZM18.847,31.8c.755.251,3.569,1.675,9.612-.441.084-.306.165-.623.245-.944-2.023.716-9.443-.937-9.483-.972C19.111,30.244,18.99,31.033,18.847,31.8Zm-1.2,4.068c.874.391,3.658,1.439,10.129-2.318q.175-.5.34-1.026l-.065.019.007-.019c-2.242,1.079-7.717,1.6-9.53.814l-.017.01a14.163,14.163,0,0,1-.864,2.52Zm6.128,4.4a12.052,12.052,0,0,0,3.49-5.376c-4.087,2.985-9.066,2.8-10.727,2.759a4.445,4.445,0,0,1-1.391,1.408c.21.4,4.723,4.424,8.628,1.209Zm0,22.179a41.309,41.309,0,0,1-.787-5.917,3.873,3.873,0,0,1-.924.182,11.5,11.5,0,0,1-1.754,4.552,11.513,11.513,0,0,0,3.465,1.183ZM41.91,84.657c-1.937-.437-7.607-3.507-8.973-4.967-1.365,4.194.541,10.9,2.7,13.438C37.157,91.035,42.09,84.7,41.91,84.657ZM60.325,79.69c-1.626,1.926-6.821,4.842-9.79,5.086.256.523,4.944,7.723,5.814,8.352,2.019-2.368,3.514-8.652,3.976-13.438Zm9.6-21.808a5.8,5.8,0,0,1-.645-.036c-.162.708-1.181,4.85-1.829,7.062a9.115,9.115,0,0,0,4.078.044,28.32,28.32,0,0,1-1.6-7.071ZM74.478,46.54c-4.4-.412-5.594-6.75-5.914-11.465l-.125.057-.36,1.379a.418.418,0,0,1-.663.215l-2.185-1.792-.91,1.128a.413.413,0,0,1-.518.1l-1.772-.95-.192,1.743a.4.4,0,0,1-.565.338l-2.332-.937-1.957,1.535a.4.4,0,0,1-.612-.116L54.62,34.8a.421.421,0,0,1,.414-.62l1.691.236-.253-2.431a55.328,55.328,0,0,1-9.438-1.025l.4,1.431,2.364.11a.458.458,0,0,1,.329.689l-2.77,3.756a.417.417,0,0,1-.73-.052l-1.276-2.37-1.382.455a.431.431,0,0,1-.523-.22l-1.2-2.426-1.229.961a.429.429,0,0,1-.616-.084l-1.425-1.941-4.229,2.214a.427.427,0,0,1-.613-.515L35,30.3l-2.143-2.181a.441.441,0,0,1,.363-.733l2.769.349a44.948,44.948,0,0,1-4.363-1.948c-3.506,12.177-5.1,19.823-13.127,17-.226-.079-.848,12.3,3.993,12.528.947.044,1.817-.914,2.106-1.036.312.149-1.309,9.544,8.3,22.3,3.934,5.221,10.052,6.689,15.686,6.258,5.073-.3,8.846-3.582,11.2-6.121,3.629-3.915,7.576-16.021,8-18.382,1.135-6.312-.085-1.738,2.191-1.765,3.234-.038,4.711-7.479,4.506-10.035ZM42.387,27.51l-1.3,1.225a.433.433,0,0,1-.593,0l-2.972-2.783.3,2.345a.421.421,0,0,1-.484.484l-2.993-.376L35.8,29.884a.433.433,0,0,1,.1.435l-.611,1.912,3.625-1.9a.434.434,0,0,1,.55.127l1.381,1.881,1.3-1.015a.423.423,0,0,1,.655.149l1.265,2.566,1.369-.45a.479.479,0,0,1,.517.206l1.124,2.087,1.884-2.554-1.866-.087a.434.434,0,0,1-.4-.315l-.842-2.975-1.489.354a.435.435,0,0,1-.475-.2M57.6,34.86a.4.4,0,0,1-.47.452l-1.366-.191,1.078,1.83,1.772-1.391a.412.412,0,0,1,.41-.058l2.048.823.2-1.81a.4.4,0,0,1,.606-.319l2.01,1.078.956-1.186a.386.386,0,0,1,.585-.06l2.008,1.647.247-.944a.413.413,0,0,1,.229-.272l1.94-.887L68.4,32.987a.415.415,0,0,1-.247-.486l.532-2.08-2.35,2.073a.414.414,0,0,1-.664-.173l-.627-1.788-1.631,1.691a.343.343,0,0,1-.629-.04L61.23,30.1,60.146,33.23c-.063.3-.325.416-.641.194l-2.228-1.69ZM77.1,36.132c-.084-.606-.152-1.23-.187-1.883-1.93-.548-5.9-1.872-6.687-2.081,0,.069.02.348.042.677l.795.32a.428.428,0,0,1,.018.76l-.608.278a18.74,18.74,0,0,0,6.615,1.922Zm-6.634-1.248c.033.432.075,1.365.123,1.822,1.972,1.923,5.495,3.283,7.322,2.943.005,0,.011,0,.017,0a15.936,15.936,0,0,1-.526-1.834,14.912,14.912,0,0,1-6.935-2.932Zm0,2.685c.284,9.8,7.856,7.821,9.792,5.932a9.894,9.894,0,0,1-1.777-2.568c-3.367.577-6.359-1.965-8.015-3.364ZM92.556,28.58c.429-.778-1.813.531-2.106.356-.25-.15,1.456-1.436.946-1.88-.263-.229-4.227,1.752-4.611,1.5-.486-.322,2.349-2.091,1.965-2.333-.5-.312-5.95,2.1-6.4,1.438-.322-.476,1.945-1.147,3.776-2.228.724-.428,1.1-.8-.566-1.282a67.879,67.879,0,0,1-12.595-7.911C58.665,4.509,48.4,1.866,35.267,6.525c-4.831,1.714-10.2,7.338-13.857,15.236a42.54,42.54,0,0,0-1.986,6.132c.012.006,7.443,2.107,9.521,1.492.332-1.489.533-2.48.782-4.305-4.4-3.735-4.907-5.344-5.083-5.636s-.037-.605.968.285a35.288,35.288,0,0,0,11.053,6.357l-.154-1.215a.42.42,0,0,1,.726-.371l2.946,2.759q.462.137.926.267l1.083-1.02a.4.4,0,0,1,.672.1l.927,1.6a79.6,79.6,0,0,0,16.542,1.961L60.7,29.1a.422.422,0,0,1,.722-.112l.882,1.181c.744-.014,1.418-.04,2.016-.076l.592-.614a.387.387,0,0,1,.688.151l.122.347c.383-.042.7-.112.955-.138,1.852-.2,9.37-3.975,8.1-2.615-.344.369-1.295,1.146-4.768,3.26,10.237,4.479,19.665,3.313,22.539-1.9Z" transform="translate(-3.718 -2.027)"/><path class="a" d="M30.38,16.749c-.825.5,6.739,7.169,13.266,8.13,6.553.965,1.194-.4-3.435-1.975C36.078,21.5,31.024,16.362,30.38,16.749Z" transform="translate(-3.718 -2.027)"/><path class="a" d="M34.627,13.56c-.861.616,6.112,8.934,20.032,10.493,1.13.127,1.206-.457-2.719-1.481-8.164-2.131-10.5-3.267-15.077-7.292C35.943,14.472,35.318,13.066,34.627,13.56Z" transform="translate(-3.718 -2.027)"/></g></svg>