<svg xmlns="http://www.w3.org/2000/svg" width="132.961" height="47.482" viewBox="0 0 132.961 47.482"><defs><style>.a{fill:#404491;fill-rule:evenodd;}</style></defs><path class="a" d="M164.209,68.742H159.46v9.5a14.245,14.245,0,0,1-14.247,14.243H126.221A14.241,14.241,0,0,1,111.978,78.24l-4.7-18.8c-1.643-.114-3.305-.195-4.944-.195-1.577,0-3.134.09-4.654.223l-4.7,18.773A14.245,14.245,0,0,1,78.735,92.483H59.743A14.245,14.245,0,0,1,45.5,78.24v-9.5H40.751A4.745,4.745,0,0,1,36,63.993V59.244A4.744,4.744,0,0,1,40.751,54.5h5.623A14.2,14.2,0,0,1,59.743,45H83.484A14.15,14.15,0,0,1,94.54,50.363a54.42,54.42,0,0,1,7.793-.613,75.352,75.352,0,0,1,8.168.513A14.154,14.154,0,0,1,121.477,45h23.741a14.2,14.2,0,0,1,13.374,9.5h5.623a4.744,4.744,0,0,1,4.749,4.744v4.749A4.752,4.752,0,0,1,164.209,68.742ZM75.6,52.88a3.563,3.563,0,0,0-5.039,0L55.454,67.991a3.561,3.561,0,1,0,5.034,5.039L75.6,57.919A3.563,3.563,0,0,0,75.6,52.88Zm66.483,0a3.563,3.563,0,0,0-5.039,0L121.932,67.991a3.563,3.563,0,0,0,5.039,5.039l15.112-15.112A3.563,3.563,0,0,0,142.083,52.88Z" transform="translate(-36.002 -45.001)"/></svg>