<svg xmlns="http://www.w3.org/2000/svg" width="43.994" height="27.998" viewBox="0 0 43.994 27.998"><defs><style>.a{fill:#707070;fill-rule:evenodd;}</style></defs><path class="a" d="M66,52H63a2,2,0,1,1,0-4h3a2,2,0,1,0,0-4,2,2,0,1,1,.4-3.959A5.985,5.985,0,0,1,66,52ZM56,48H34a2,2,0,0,0,0,4H56a5.986,5.986,0,0,1,.4,11.959A2,2,0,1,1,56,60a2,2,0,0,0,0-4H34a5.985,5.985,0,0,1-.4-11.958A2.07,2.07,0,0,1,34,44H56a2,2,0,0,0,0-4,2,2,0,1,1,0-4,2.065,2.065,0,0,1,.4.041A5.985,5.985,0,0,1,56,48Z" transform="translate(-28.003 -36.002)"/></svg>